<svg xmlns="http://www.w3.org/2000/svg" xmlns:xlink="http://www.w3.org/1999/xlink" width="420" height="420"><defs><filter id="e" color-interpolation-filters="sRGB"><feFlood flood-opacity=".5" flood-color="#000" result="flood"/><feComposite in2="SourceGraphic" in="flood" operator="in" result="composite1"/><feGaussianBlur stdDeviation=".5" result="blur"/><feOffset dx="4" dy="4" result="offset"/><feComposite in2="offset" in="SourceGraphic" result="fbSourceGraphic"/><feColorMatrix result="fbSourceGraphicAlpha" in="fbSourceGraphic" values="0 0 0 -1 0 0 0 0 -1 0 0 0 0 -1 0 0 0 0 1 0"/><feFlood flood-opacity=".5" flood-color="#000" result="flood"/><feComposite in2="fbSourceGraphic" in="flood" operator="in" result="composite1"/><feGaussianBlur stdDeviation=".5" result="blur"/><feOffset dx="4" dy="4" result="offset"/><feComposite in2="offset" in="fbSourceGraphic" result="fbSourceGraphic"/><feColorMatrix result="fbSourceGraphicAlpha" in="fbSourceGraphic" values="0 0 0 -1 0 0 0 0 -1 0 0 0 0 -1 0 0 0 0 1 0"/><feFlood flood-opacity=".5" flood-color="#000" result="flood"/><feComposite in2="fbSourceGraphic" in="flood" operator="in" result="composite1"/><feGaussianBlur stdDeviation=".5" result="blur"/><feOffset dx="4" dy="4" result="offset"/><feComposite in2="offset" in="fbSourceGraphic" result="composite2"/></filter><filter id="g" color-interpolation-filters="sRGB"><feFlood flood-opacity=".5" flood-color="#000" result="flood"/><feComposite in2="SourceGraphic" in="flood" operator="in" result="composite1"/><feGaussianBlur stdDeviation=".5" result="blur"/><feOffset dx="4" dy="4" result="offset"/><feComposite in2="offset" in="SourceGraphic" result="fbSourceGraphic"/><feColorMatrix result="fbSourceGraphicAlpha" in="fbSourceGraphic" values="0 0 0 -1 0 0 0 0 -1 0 0 0 0 -1 0 0 0 0 1 0"/><feFlood flood-opacity=".5" flood-color="#000" result="flood"/><feComposite in2="fbSourceGraphic" in="flood" operator="in" result="composite1"/><feGaussianBlur stdDeviation=".5" result="blur"/><feOffset dx="4" dy="4" result="offset"/><feComposite in2="offset" in="fbSourceGraphic" result="composite2"/></filter><filter id="f" color-interpolation-filters="sRGB"><feGaussianBlur stdDeviation="7.475"/></filter><filter id="c" x="-.082" width="1.164" y="-.314" height="1.628" color-interpolation-filters="sRGB"><feGaussianBlur stdDeviation="11.783"/></filter><filter id="i" color-interpolation-filters="sRGB"><feFlood flood-opacity=".5" flood-color="#000" result="flood"/><feComposite in2="SourceGraphic" in="flood" operator="in" result="composite1"/><feGaussianBlur stdDeviation=".5" result="blur"/><feOffset dx="4" dy="4" result="offset"/><feComposite in2="offset" in="SourceGraphic" result="fbSourceGraphic"/><feColorMatrix result="fbSourceGraphicAlpha" in="fbSourceGraphic" values="0 0 0 -1 0 0 0 0 -1 0 0 0 0 -1 0 0 0 0 1 0"/><feFlood flood-opacity=".5" flood-color="#000" result="flood"/><feComposite in2="fbSourceGraphic" in="flood" operator="in" result="composite1"/><feGaussianBlur stdDeviation=".5" result="blur"/><feOffset dx="4" dy="4" result="offset"/><feComposite in2="offset" in="fbSourceGraphic" result="composite2"/></filter><linearGradient id="b"><stop offset="0" stop-color="#fff"/><stop offset="1" stop-color="#fff" stop-opacity="0"/></linearGradient><linearGradient id="a"><stop offset="0" stop-color="#00c7ff"/><stop offset=".5" stop-color="#3678d0"/><stop offset="1" stop-color="#00006e"/></linearGradient><linearGradient xlink:href="#b" id="h" gradientUnits="userSpaceOnUse" gradientTransform="translate(-171.723 209.91)" x1="-358.65" y1="182.758" x2="-270.919" y2="282.064"/><radialGradient xlink:href="#a" id="d" gradientUnits="userSpaceOnUse" gradientTransform="matrix(-.61586 1.0866 -1.38102 -.78273 1117.031 288.42)" cx="394.922" cy="450.167" fx="394.922" fy="450.167" r="282.267"/></defs><path transform="translate(-77.861 -102.028)" d="M460.78 438.462c0 24.864-77.066 45.02-172.13 45.02-95.066 0-172.131-20.156-172.131-45.02 0-24.863 77.065-45.018 172.13-45.018s172.13 20.155 172.13 45.018z" opacity=".555" fill-rule="evenodd" stroke="#000" filter="url(#c)"/><path d="M198.553 138.109c2.334-3.435 2.88 1.905 0 0zm-18.662 32.878c2.416-20.576 53.953-41.319 23.162-35.437 42.97-27.335 97.576-44.706 146.728-42.215 56.615-3.89 114.311 15.652 161.772 46.826-52.86-19.242 16.823 11.904 9.926 31.389-28.286-13.085-38.26-50.666-74.404-46.228-11.878-10.649-9.007-22.1-17.472-21.246-34.75-9.559.378 3.406 12.6 20.158-28.38 14.758-45.31-43.964-65.38-17.98 21.85 21.046-6.401 12.662-21.456 14.296-6.201-10.004 2.485-30.969-20.674-22.779-7.836-4.103 19.7 1.886 14.516 4.454 7.02 29.967-26.68 13.177-42.44 20.681 21.219 31.915-52.595 54.29-26.553 13.875 39.346-24.735-24.235-5.363-17.882-14.524 11.662-21.692 77.246-26.279 31.798-22.347-32.547 24.761-74.273 26.741-97.197 63.015-4.336 1.392-11.946 12.837-17.044 8.062zm14.078 88.94c7.654-24.558 6.496-63.228 37.14-49.732 27.407-6.026 40.282-72.133-.556-46.509-.41-21.655 49.035-48.654 47.986-30.463-39.193 37.481 36.307 47.224 36.155 3.496-8.071-21.3 49.999-16.076 31.474 10.603-10.553 45.663 28.025-9.248 40.75 24.585 9.563 34.667-27.702 27.605-41.341 16.6-2.197 23.167-1.63 46.514-2.342 69.768-16.434-3.152-61.221 9.75-53.626-7.725 33.108-39.933-31.753-82.22-48.837-29-11.873 20.763 11.986 49.238-25.869 40.017-2.557-2.65-24.192 5.601-20.934-1.64zm363.649-75.251c-1.065-9.145-56.408-51.09-16.623-15.889 3.933-1.521 23.001 30.547 16.623 15.89zm13.935 10.529c-6.823-7.521-4.921-3.152 0 0zm4 4.967c-3.379-4.056-4.728-2.762 0 0zm35.566 73.912c-15.877-10.687-17.407-36.64-28.974-52.912 23.387 25.01-17.54-42.416 4.106.013-35.39-39.957 15.824 32.45 15.912 49.452-33.033 10.503-22.08-29.72-39.365-47.076-14.966-31.23-42.866-13.604-25.83 14.989 16.661 23.929 13.517 31.269-16.389 24.48-26.445-9.62-14.748-93.267-52.378-60.409-30.037-7.006-23.113-63.297 6.934-28.961 18.25-3.254-50.924-58.317-1.328-40.273 12.66 7.571 48.046 60.916 54.724 36.304-9.233-17.052-45.816-39.965-10.982-24.592 46.03 31.729 81.386 78.576 101.004 130.894l-7.434-1.91h0zM177.553 156.05c10.806-12.413-13.157 12.56 0 0zm-26.842 27.75c30.394-30.676-5.52 6.306-5.064 2.328-7.028 12.203-3.612 7.548 5.064-2.328zm-62.158 92.193c7.946-23.375 24.758-51.293 34.5-64.451 16.861-23.887 37.432-46.08 61.31-62.788-6.463 2.934 39.392-20.584 7.18 2.583-22.475 13.429-21.092 42.376 4.261 16.137 8.442-13.119 51.908-52.973 47.72-28.761-12.457 12.817-39.063 55.531-4.831 26.611 34.488-.657-13.768 63.209-26.763 27.78-18.821 17.946-11.032 60.914-32.294 70.476-22.625 4.526-39.513 2.174-17.787-22.127 17.734-27.114-6.351-50.62-23.204-16.49-10.453 15.645-16.925 65.916-34.684 39.81 9.266-24.95 38.013-69.222 11.11-40.256-4.667 13.515 13.493-10.996.83 9.5-11.101 11.164-8.363 40.867-27.348 41.976zm348 57.91c-43.948-10.684-8.767-57.5-17.171-74.21-22.595-1.013-45.218-.998-67.829-1.397v-58.86c34.928 35.59 65.439-36.71 21.77-46.668-25.786 18.655-26.574-19.65-15.973-28.16 20.282.74 54.756 5.93 23.203-18.335 25.323-20.839 21.966 35.349 51.46 21.924 22.338-3.643 54.982 49.436 16.096 28.257-26.298 25.094 22.546 67.32 42.18 52.388 6.04 23.353 30.979 68.249-15.307 51.96-36.5-9.485-31.324 11.71-13.699 34.196 5.326 15.65-5.583 40.87-24.73 38.906zm190.738-21.766c-6.265-25.172-5.21-31.153 1.422-2.051 3.37 11.59 6.932 38.643.612 10.979l-2.034-8.928zM82.354 300.05c-2.195-1.417-1.535 13.159 0 0zm-2.138 8.25c-1.75 1 1.623 5.507 0 0zm-.862 5.75c-2.195-1.417-1.535 13.159 0 0zm1.527 135.372c-11.188-41.21-13.812-87.649-3.683-127.561-6.328 14.354 6.054-28.286 8.555-36.137 21.408-3.47-12.245 53.809-.639 66.243 17.059-48.152 21.456 59.093 2.044 32.848-12.528-38.1 3.022 78.484.394 48.258 1.423 15.34 9.714 19.877-6.671 16.349zm532.094.375c8.877-23.203 1.85-58.677 17.116-55.097 6.715-17.157 1.937-74.252-10.397-61.286-5.405-15.05-14.963-69.202 1.963-44.08 11.08 44.778 20.792 90.734 6.84 136.216-1.555 9.024-1.991 31.802-15.522 24.247zm12.108 1.753c2.686-18.538 14.502-83.797 7.443-32.2-2.28 10.697-3.123 22.08-7.443 32.2zm-273.53-24.005c2.422-11.153-7.289-48.183 10.739-26.327 39.27 17.982 62.346-49.72 31.524-71.854-19.27-24.19-51.407 24.024-42.263-17.257v-43.875c19.084 4.638 70.294-11.173 53.466 17.638-20.077 46.667 60.766 87.534 65.42 24.612 6.446-20.352-31.006-49.057 9.364-39.514 55.427-20.295 16.316 82.823 45.723 75.002 38.596-45.577 39.715 80.691 1.42 35.533C504.15 369.5 520.2 439.3 510.023 459.05c-20.621-1.157-67.82 13.124-39.78-20.054 20.965-51.93-60.866-75.077-65.205-17.551-5.125 23.034 21.263 48.298-16.552 40.39-12.618-3.396-42.229 10.57-36.933-11.159v-23.13zm-259.878 49.33c-3.643-4.577 2.715 7.378 0 0zm13.873 32.425c-8.812-17.013-12.603-26.421-17.995-40.75-8.629-8.081 5.632-16.747 9.24.771 3.512 17.657 25.695 50.56 10.123 39.715 6.084 12.173 3.49 11.86-1.368.264zm38.68 8.675c-33.014-17.13-1.564-76.164-50.378-66.795-.59-15.37-22.17-75.114 1.358-51.144 14.83-17.63 10.786-85.903-8.381-65.368 1.714-30.314 9.542-59.576 41.423-62.8-12.819-25.128 43.68-88.268 29.809-32.697-12.682 19.135-32 47.316 7.584 35.005 34.182-18.06 6.897 63.774 6.678 60.908-36.47-26.435-51.067 58.647-17.417 70.907 22.54-11.417 22.09-4.47 22.403 20.212 11.324 30.731-3.231 37.908-32.57 30.493-31.334-4.532 40.989 65.42-.509 61.279zm406.639 2.495c-25.423-18.182 42.417-69.559 1.895-63.268-26.018 5.576-45.824 3.773-32.261-27.27 1.91-22.33-3.085-44.817 23.02-27.374 35.372-11.724 18.9-96.712-17.257-72.258-3.876-4.063-29.346-74.776 10.847-56.366 60.855 18.852-30.691-60.516 14.138-57.639 31.34 18.442 5.478 73.975 54.093 64.71 11.851 16.045 6.99 90.732 21.788 59.199 11.223 32.795-.659 51.458-7.564 41.399-4.588 29.439 4.951 80.59-39.387 75.394-.582 22.54-2.412 57.05-29.312 63.473zM352.449 602.8c1.343-23.18 2.796-55.948-25.715-27.231-45.187-15.235-2.847-67.36 23.174-30.861 3.32-23.78.962-48.133 1.645-72.158h71.18c-.774-21.618-25.39-67.99 16.376-76.311 47.297 6.426 7.38 59.225 12.563 74.97 23.494 3.978 74.325-17.296 51 25.112-5.001 20.268-22.142 62.44 11.15 28.954 30.674 10.388-19.614 58.828-30.717 35.745-14.284 19.416-18.502 58.077-50.07 52.02-27.522 7.948 33.687-43.982-11.796-43.621-43.979-2.583-13.593 61.575-56.278 46.13-12.778 1.554-13.795.26-12.512-12.75zm-42.144 12.168c21.799-37.806-62.81-68.296-44.196-18.028 33.6 30.124-37.517 15.042-36.794-12.971-23.952-30.227 32.196 15.057 22.936-24.368 1.109-30.244-37.075-45.934-49.888-38.211-10.008-27.362-22.44-65.104 21.937-51.009 31.61-4.407-4.426 45.91 27.576 58.387 36.076 34.438 63.837-30.78 34.677-55.599 25.893.461 71.058-12.799 56.926 30.296 3.064 23.214.925 31.121-20.424 18.085-48.68 3.107-13.869 85.702 22.108 54.32-2.687 15.349 12.384 48.211-15.251 39.68-6.536-.076-13.094.109-19.607-.582zm-143.869-32.186c-12.976-17.644-42.51-45.723-22.937-23.397-.177-.735 42.394 45.787 22.937 23.397zm63.117 43.303c-4.663-3.767-5.812-2.175 0 0zm18.5 8.465c-9.575-3.166 5 3.28 0 0zm56.5 17.683c-40.88-5.4-85.153-25.15-119.662-51.238 19.674 3.169 56.457 38.509 21.502 5.693-21.265-12.84-33.412-8.557-49.393-29.602-15.673-16.273-36.494-38.06-43.737-56.176-7.725-19.31 22.7 25.419 4.4-6.247-11.131-18.183-33.47-68.88.923-48.337-9.208 25.845 44.504 93.481 41.812 39.076-1.35-21.35-34.389-49.63 6.744-37.522 33.696-3.286 17.458 50.886 36.208 69.92 14.773-33.504 65.177 26.78 29.296 32.42-47.677-37.246 11.997 33.122 3.27 38.857-61.037-20.253 26.728 32.788 19.25 27.052-33.34-16.586-31.394-35.45-1.245-14.203 15.713 23.33 43.763 19.095 50.632 30.307zm174-27.254c-5.237.889-5.471 4.806 0 0zm-18 9.57c2.48-3.938-7.328 4.194 0 0zm-130.989 21.802c-24.564-10.656-65.755-17.583-75.01-40.393 25.782 6.352 48.236 3.792 17.356-17.776-10.59-44.581 52.942-7.477 32.015 20.753 20.794-1.31 55.947 2.045 42.444 24.6-19.234-11.046-19.982 14.367-6.43 11.13-20.249-17.359 28.331 3.308 12.614-26.659 5.633-18.761 63.84 8.217 42.461-31.153 7.672-37.959 58.755-12.337 25.535 11.552-31.18 25.551 58.074-6.568 15.22 22.557-22.214 16.881 7.712 13.103-2.42 11.856 4.11 2.156 13.838-13.562-4.796-2.54 9.215-15.58 40.836-34.15 49.071-25.363-21.389 12.387-36.86 34.83-9.826 9.024 16.111-9.332 35.509-24.536 2.984-14.967-26.007 11.787 14.115-48.287 20.657-32.598 39.82-4 50.327-80.507 11.018-54.914 4.225-35.849 13.186-64.36 55.35-55.175-17.825 16.516-27.819 87.03 8.112 51.054 20.252-14.706 11.607-74.035 39.975-50.293-8.83 29.654-14.967 47.202-36.964 55.052-8.677 7.857-40.198 61.242-11.317 38.604-12.153 16.01-29.676 34.057-4.391 7.321 15.62-17.22 17.452-22.78-1.803-6.473-2.186-13.781 30.013-57.524 29.01-32.388 19.143-14.307 19.876-78.563 41.984-66.777-18.046 51.617-49.392 102.173-95.157 132.534-13.926.478-49.497 26.576-45.203 28.074 15.364-16.142 55.779-28.75 24.237-11.08-44.61 29.622-99.331 45.171-152.858 44.954-21.338-4.768 8.213 3.537-18.16-.08l-5.708-.436h0z" transform="matrix(.57388 0 0 .57388 -5.11 -23.096)" fill="url(#d)" stroke="#000" stroke-width="2" filter="url(#e)"/><path d="M-434.33 648.79c-40.643-10.42-8.178-62.656-25.117-74.293-30.072-.344-71.41 7.199-60.403-38.631-.063-19.212 10.008-24.611-19.331-18.38-40.566 2.078-5.96-108.09 18.345-57.222 21.356-18.044-14.876-82.192 31.892-75.08 22.553 2.582 51.127-2.057 29.968-29.391-.995-53.041 70.969-56.79 50.46 1.508-33.658 34.235 7.684 25.444 30.653 25.474 21.483-7.02 18.293 10.797 17.5 26.201-.415 24.338-8.393 79.03 24.668 38.507 79.421-24.493 29.672 124.624-16.802 43.546-18.576 1.41-4.513 44.539-7.982 64.01 5.475 20.355-6.132 23.607-23.997 20.594-15.167-.018-13.122-.035-28.29-.053 5.317 21.121 24.507 71.779-21.564 73.21z" opacity=".55" filter="url(#f)" transform="matrix(.57388 0 0 .57388 400.006 -87.297)"/><path d="M-451.543 634.401c-40.643-10.42-8.178-62.655-25.117-74.293-30.072-.344-71.41 7.2-60.403-38.631-.063-19.212 10.008-24.61-19.331-18.379-40.566 2.078-5.96-108.09 18.345-57.222 21.355-18.045-14.876-82.193 31.892-75.08 22.553 2.581 51.127-2.058 29.968-29.392-.995-53.041 70.969-56.79 50.46 1.508-33.658 34.235 7.683 25.444 30.653 25.474 21.483-7.02 18.293 10.797 17.5 26.202-.415 24.337-8.393 79.03 24.668 38.506 79.421-24.493 29.672 124.625-16.802 43.547-18.576 1.41-4.513 44.538-7.982 64.01 5.475 20.354-6.132 23.606-23.997 20.594-15.167-.018-13.122-.036-28.29-.054 5.316 21.122 24.507 71.78-21.564 73.21z" fill="#f60" filter="url(#g)" transform="matrix(.57388 0 0 .57388 400.006 -87.297)"/><path style="marker:none" d="M-518.632 492.983c-11.98-35.136-13.358-81.936 6.62-102.616 19.979-20.679 76.251-19.54 60.246-7.282-51.845 39.705-52.353 152.465-66.866 109.898z" color="#000" fill="url(#h)" overflow="visible" enable-background="accumulate" transform="matrix(.57388 0 0 .57388 400.006 -87.297)"/><text style="line-height:125%;-inkscape-font-specification:Cooper Std Black" x="120.874" y="776.945" transform="matrix(1.01494 0 0 1.01257 -22.773 -562.514)" font-size="30.488" font-weight="400" letter-spacing="0" word-spacing="0" fill="#235a96" stroke="#fff" stroke-width="1.58" filter="url(#i)" font-family="Cooper Std Black"><tspan x="120.874" y="776.945" style="-inkscape-font-specification:Cooper Std Black">XML</tspan></text><text style="line-height:125%;-inkscape-font-specification:Rosewood Std Regular" x="538.9" y="208.073" transform="translate(0 -180)" font-size="56" font-weight="400" letter-spacing="0" word-spacing="0" font-family="Rosewood Std Regular"/></svg>